<svg xmlns="http://www.w3.org/2000/svg" width="11.93" height="11.93" viewBox="0 0 11.93 11.93"><defs><style>.a{fill:#80c7b7;}</style></defs><path class="a" d="M0,11.93V3.976H3.168L5.156,0h.31A1.475,1.475,0,0,1,6.554.5a1.473,1.473,0,0,1,.4.994c0,.044,0,.093,0,.144a2.862,2.862,0,0,1-.112,1.005,5.077,5.077,0,0,0-.265,1.205c0,.048-.009.089-.014.131h3.867a1.5,1.5,0,0,1,1.46,1.8L10.825,10.75a1.5,1.5,0,0,1-1.46,1.18ZM3.976,4.6v6.338H9.365a.5.5,0,0,0,.5-.389l1.057-4.971a.5.5,0,0,0-.1-.428.483.483,0,0,0-.385-.178h-5l.031-.528A9.586,9.586,0,0,1,5.9,2.33a2.585,2.585,0,0,0,.063-.741v-.1a.549.549,0,0,0-.14-.327.11.11,0,0,0-.059-.027.137.137,0,0,1-.05-.02ZM.994,10.936H2.982V4.971H.994Zm.5-.995a.5.5,0,1,1,.5.5A.5.5,0,0,1,1.491,9.941Z"/></svg>