<svg xmlns="http://www.w3.org/2000/svg" width="21.227" height="21.803" viewBox="0 0 21.227 21.803"><defs><style>.a{fill:#fff;}</style></defs><g transform="translate(0 0)"><path class="a" d="M12.972,21.8H8.255l-.13-.681-.5-2.489A8.369,8.369,0,0,1,5.45,17.348l-2.436.839-.655.21-.341-.6L.341,14.911,0,14.309l.5-.446,1.887-1.652c-.012-.073-.024-.147-.037-.22a6.513,6.513,0,0,1-.121-1.09A6.528,6.528,0,0,1,2.348,9.81c.013-.076.025-.148.036-.219L.5,7.94,0,7.495l.341-.6L2.018,4.009l.341-.6.655.21,2.436.838A8.364,8.364,0,0,1,7.626,3.171l.5-2.49L8.255,0h4.717L13.1.681l.5,2.49a8.366,8.366,0,0,1,2.175,1.283l2.437-.838.655-.21.34.6,1.678,2.883.34.6-.5.445L18.842,9.591q.018.114.038.228A6.532,6.532,0,0,1,19,10.9a6.513,6.513,0,0,1-.119,1.082c-.013.076-.026.153-.038.229l1.886,1.651.5.446-.34.6-1.678,2.883-.34.6-.655-.21-2.437-.839A8.37,8.37,0,0,1,13.6,18.632l-.5,2.489-.131.68ZM5.713,15.488h0l.367.341A6.676,6.676,0,0,0,8.622,17.3l.472.158.105.5.419,2.175h1.991l.419-2.175.1-.5.473-.158a6.689,6.689,0,0,0,2.542-1.467l.367-.341.472.158,2.123.734,1-1.7-1.677-1.494-.367-.314.105-.5a6.953,6.953,0,0,0,0-2.935l-.131-.5.393-.315L19.1,7.129l-1-1.7-2.123.734-.472.158-.367-.34a6.759,6.759,0,0,0-2.542-1.468l-.472-.158-.105-.5L11.61,1.677H9.618L9.2,3.853l-.105.5-.472.158A6.755,6.755,0,0,0,6.08,5.976l-.367.34-.472-.158L3.119,5.425l-1,1.7L3.8,8.621l.392.316-.13.5a6.915,6.915,0,0,0,0,2.935l.13.5-.392.314L2.123,14.676l1,1.7,2.122-.734.471-.157Zm4.9-.392A4.193,4.193,0,1,1,14.807,10.9,4.2,4.2,0,0,1,10.614,15.1Zm0-6.71a2.5,2.5,0,1,0,1.782.733A2.5,2.5,0,0,0,10.614,8.386Z"/></g></svg>