<svg xmlns="http://www.w3.org/2000/svg" width="15.251" height="7.953" viewBox="0 0 15.251 7.953"><defs><style>.a{fill:#80c7b7;}</style></defs><path class="a" d="M7.067,7.922C3.248,7.621.325,4.336.3,4.3L0,3.976.3,3.65A12.812,12.812,0,0,1,2.408,1.825,9.439,9.439,0,0,1,7.626,0a9.163,9.163,0,0,1,5.219,1.825A12.683,12.683,0,0,1,14.957,3.65l.294.326-.294.327c-.029.033-2.952,3.317-6.773,3.619a4.974,4.974,0,0,1-1.118,0ZM4.613,1.708h.016A3.488,3.488,0,0,0,7.238,6.944l.038,0c.113.006.23.013.35.013.084,0,.167,0,.247-.009h.006l.1-.006h.031a3.474,3.474,0,0,0,3.092-3.464,3.406,3.406,0,0,0-.5-1.787,7.2,7.2,0,0,0-2.982-.7A7.231,7.231,0,0,0,4.613,1.708ZM12.1,3.479a4.442,4.442,0,0,1-.683,2.377,11.406,11.406,0,0,0,2.408-1.88,11.94,11.94,0,0,0-1.849-1.522A4.434,4.434,0,0,1,12.1,3.479Zm-10.67.5a11.415,11.415,0,0,0,2.408,1.88,4.449,4.449,0,0,1-.683-2.377,4.55,4.55,0,0,1,.124-1.025A12.109,12.109,0,0,0,1.428,3.976Zm4.707-.5a1.491,1.491,0,1,1,1.49,1.491A1.491,1.491,0,0,1,6.135,3.479Z"/></svg>